<svg width="512" height="512" viewBox="0 0 512 512" fill="none" xmlns="http://www.w3.org/2000/svg">
<path d="M450.64 39.68C481.38 70.44 468.41 126.14 433.21 186.98V186.99C421.945 206.25 409.553 224.829 396.1 242.63L396.09 242.64C390.76 235.046 382.954 229.545 374.01 227.08C393.03 201.73 408.5 177.32 419.77 155.13C442.29 110.74 447.99 75.22 431.56 58.77C415.13 42.32 379.62 48.03 335.26 70.58C325.062 65.1823 314.416 60.6787 303.44 57.12C364.24 21.9 419.9 8.90999 450.64 39.68V39.68Z" fill="#FFE578"/>
<path d="M433.21 186.99C444.79 222.525 446.313 260.571 437.61 296.918C428.907 333.265 410.317 366.495 383.899 392.931C357.48 419.368 324.262 437.98 287.921 446.707C251.58 455.434 213.533 453.936 177.99 442.38C225.46 414.89 276.06 373.84 320.39 329.48C329.32 320.55 338.11 311.36 346.68 302V301.99C353.905 305.31 361.955 306.402 369.803 305.126C377.651 303.85 384.941 300.265 390.743 294.827C396.544 289.39 400.593 282.347 402.374 274.598C404.155 266.848 403.586 258.744 400.74 251.32C399.561 248.242 397.999 245.326 396.09 242.64L396.1 242.63C409.553 224.829 421.945 206.25 433.21 186.99V186.99Z" fill="#3791F1"/>
<path d="M48.69 313.95C36.8068 278.38 35.0311 240.21 43.5608 203.691C52.0905 167.171 70.5907 133.737 97.0008 107.111C123.411 80.4853 156.694 61.7139 193.143 52.8875C229.591 44.0611 267.775 45.5264 303.44 57.12C314.416 60.6787 325.062 65.1823 335.26 70.58C371.246 89.6821 400.679 119.133 419.76 155.13H419.77C408.5 177.32 393.03 201.73 374.01 227.08C366.601 225.055 358.766 225.204 351.44 227.511C344.114 229.817 337.607 234.183 332.695 240.088C327.783 245.992 324.673 253.185 323.738 260.809C322.803 268.432 324.081 276.163 327.42 283.08C319.08 292.19 310.377 301.29 301.31 310.38C247.66 364.06 192.15 405.54 146.17 428.91C110.181 409.811 80.7489 380.355 61.68 344.35C56.5188 334.592 52.174 324.424 48.69 313.95Z" fill="#3791F1"/>
<path d="M400.74 251.32C404.435 260.872 404.347 271.473 400.495 280.963C396.643 290.453 389.316 298.115 380.009 302.389C370.702 306.663 360.115 307.225 350.407 303.962C340.699 300.699 332.601 293.856 327.765 284.828C322.928 275.801 321.718 265.268 324.379 255.378C327.041 245.489 333.375 236.986 342.089 231.606C350.803 226.225 361.242 224.371 371.276 226.421C381.311 228.471 390.185 234.272 396.09 242.64C397.999 245.326 399.561 248.242 400.74 251.32V251.32Z" fill="#D150CD"/>
<path d="M346.68 301.99V302C338.11 311.36 329.32 320.55 320.39 329.48C276.06 373.84 225.46 414.89 177.99 442.38C117.19 477.6 61.5401 490.58 30.7901 459.82C0.800055 429.8 15.4101 373.07 48.6901 313.95C52.174 324.424 56.5188 334.592 61.6801 344.35C39.1401 388.75 33.4501 424.28 49.8801 440.72C66.3101 457.16 101.81 451.46 146.17 428.91C192.15 405.54 247.66 364.06 301.31 310.38C310.37 301.31 319.073 292.21 327.42 283.08C331.462 291.419 338.268 298.101 346.68 301.99V301.99Z" fill="#FFE578"/>
<path d="M127.59 392.98C113.252 378.66 101.147 362.267 91.68 344.35C86.5188 334.592 82.1739 324.424 78.69 313.95C68.9237 284.708 65.9599 253.623 70.0244 223.063C74.089 192.503 85.0746 163.273 102.145 137.6C119.215 111.928 141.919 90.4899 168.527 74.9194C195.136 59.3488 224.947 50.0564 255.69 47.75C209.315 44.386 163.195 57.0729 125.065 83.6823C86.9356 110.292 59.1171 149.205 46.2767 193.893C33.4363 238.581 36.3551 286.326 54.5434 329.117C72.7318 371.909 105.083 407.143 146.17 428.91C151.252 426.327 156.447 423.521 161.756 420.492C149.408 412.581 137.952 403.357 127.59 392.98V392.98Z" fill="#3A8BE2"/>
<path d="M123.132 373.416C122.344 373.417 121.563 373.262 120.834 372.96C120.106 372.658 119.445 372.215 118.888 371.657C109.247 362.017 100.779 351.272 93.658 339.646C93.2469 338.974 92.9722 338.227 92.8496 337.449C92.7271 336.67 92.759 335.875 92.9437 335.109C93.1283 334.343 93.4621 333.621 93.9258 332.984C94.3895 332.347 94.9742 331.808 95.6465 331.397C96.3187 330.985 97.0653 330.711 97.8437 330.588C98.6221 330.466 99.417 330.498 100.183 330.682C100.949 330.867 101.671 331.201 102.308 331.664C102.945 332.128 103.485 332.713 103.896 333.385C110.523 344.204 118.404 354.203 127.376 363.174C128.215 364.013 128.786 365.082 129.018 366.246C129.249 367.41 129.13 368.617 128.676 369.713C128.221 370.809 127.452 371.746 126.465 372.405C125.479 373.064 124.319 373.416 123.132 373.416V373.416Z" fill="#F3F3F3"/>
<path d="M79.933 298.337C78.608 298.336 77.3205 297.897 76.2713 297.088C75.2221 296.279 74.4702 295.145 74.133 293.864C65.4346 260.997 66.6418 226.293 77.603 194.11C78.1151 192.603 79.2048 191.362 80.6323 190.659C82.0599 189.955 83.7083 189.848 85.215 190.36C86.7217 190.872 87.9632 191.962 88.6665 193.389C89.3697 194.817 89.4771 196.465 88.965 197.972C78.7642 227.923 77.6412 260.22 85.737 290.807C85.9698 291.695 85.9959 292.625 85.8132 293.525C85.6306 294.425 85.2441 295.271 84.6834 295.998C84.1227 296.725 83.4028 297.314 82.5789 297.72C81.7551 298.125 80.8492 298.336 79.931 298.337H79.933Z" fill="#F3F3F3"/>
<path d="M84.7 55.332C80.2964 53.8506 76.2958 51.3694 73.0119 48.0828C69.7279 44.7963 67.2499 40.7937 65.772 36.389C65.374 35.194 64.61 34.1546 63.5883 33.4181C62.5666 32.6815 61.339 32.2852 60.0795 32.2852C58.82 32.2852 57.5924 32.6815 56.5707 33.4181C55.549 34.1546 54.785 35.194 54.387 36.389C52.9089 40.7936 50.4308 44.7961 47.1468 48.0826C43.8629 51.3691 39.8624 53.8504 35.459 55.332C34.2647 55.7305 33.2261 56.4946 32.4901 57.516C31.7542 58.5374 31.3582 59.7645 31.3582 61.0235C31.3582 62.2825 31.7542 63.5095 32.4901 64.531C33.2261 65.5524 34.2647 66.3165 35.459 66.715C39.8625 68.1964 43.8631 70.6776 47.1471 73.9642C50.431 77.2507 52.9091 81.2533 54.387 85.658C54.785 86.853 55.549 87.8923 56.5707 88.6289C57.5924 89.3655 58.82 89.7618 60.0795 89.7618C61.339 89.7618 62.5666 89.3655 63.5883 88.6289C64.61 87.8923 65.374 86.853 65.772 85.658C67.2498 81.2532 69.7278 77.2506 73.0118 73.9641C76.2958 70.6775 80.2964 68.1963 84.7 66.715C85.8942 66.3165 86.9329 65.5524 87.6688 64.531C88.4048 63.5095 88.8008 62.2825 88.8008 61.0235C88.8008 59.7645 88.4048 58.5374 87.6688 57.516C86.9329 56.4946 85.8942 55.7305 84.7 55.332V55.332Z" fill="#444B8C"/>
<path d="M435.75 438.463C431.347 436.982 427.346 434.5 424.063 431.214C420.779 427.928 418.301 423.925 416.823 419.521C416.425 418.326 415.661 417.287 414.639 416.55C413.618 415.814 412.39 415.417 411.13 415.417C409.871 415.417 408.643 415.814 407.622 416.55C406.6 417.287 405.836 418.326 405.438 419.521C403.96 423.926 401.482 427.928 398.198 431.215C394.914 434.501 390.914 436.982 386.51 438.463C385.315 438.861 384.276 439.625 383.54 440.647C382.804 441.668 382.408 442.896 382.408 444.155C382.408 445.414 382.804 446.642 383.54 447.663C384.276 448.685 385.315 449.449 386.51 449.847C390.914 451.328 394.914 453.809 398.198 457.096C401.482 460.382 403.96 464.384 405.438 468.789C405.836 469.984 406.6 471.023 407.622 471.76C408.643 472.496 409.871 472.893 411.13 472.893C412.39 472.893 413.618 472.496 414.639 471.76C415.661 471.023 416.425 469.984 416.823 468.789C418.301 464.384 420.779 460.382 424.063 457.095C427.346 453.809 431.347 451.328 435.75 449.846C436.945 449.448 437.984 448.684 438.72 447.662C439.456 446.641 439.852 445.413 439.852 444.154C439.852 442.895 439.456 441.667 438.72 440.646C437.984 439.624 436.945 438.86 435.75 438.462V438.463Z" fill="#444B8B"/>
<path d="M120.292 5C117.981 4.99921 115.721 5.68385 113.799 6.96733C111.877 8.25082 110.379 10.0755 109.494 12.2106C108.609 14.3457 108.377 16.6952 108.827 18.9622C109.277 21.2291 110.39 23.3116 112.024 24.9461C113.658 26.5807 115.74 27.694 118.007 28.1452C120.274 28.5964 122.623 28.3652 124.759 27.4809C126.894 26.5966 128.719 25.0989 130.003 23.1773C131.288 21.2556 131.973 18.9962 131.973 16.685C131.969 13.5879 130.737 10.6186 128.548 8.42825C126.358 6.23786 123.389 5.00503 120.292 5V5Z" fill="#49BDFF"/>
<path d="M498.5 78.8C496.922 78.8001 495.408 78.1787 494.285 77.0703C493.162 75.9619 492.521 74.4557 492.5 72.878C492.193 49.165 484.818 29.918 470.581 15.67C470.017 15.1143 469.568 14.4524 469.261 13.7224C468.953 12.9924 468.794 12.2088 468.791 11.4168C468.788 10.6247 468.942 9.83995 469.243 9.10769C469.545 8.37543 469.989 7.71019 470.549 7.15033C471.11 6.59047 471.775 6.14708 472.508 5.84573C473.24 5.54437 474.025 5.39103 474.817 5.39453C475.609 5.39803 476.393 5.55831 477.122 5.86613C477.852 6.17395 478.514 6.62321 479.069 7.188C495.594 23.721 504.15 45.771 504.5 72.72C504.51 73.5079 504.365 74.29 504.073 75.0218C503.781 75.7536 503.348 76.4207 502.798 76.985C502.248 77.5493 501.592 77.9997 500.868 78.3107C500.144 78.6216 499.366 78.7868 498.578 78.797L498.5 78.8Z" fill="#444B8C"/>
<path d="M487.811 139.536C486.863 139.534 485.93 139.308 485.086 138.877C484.243 138.445 483.513 137.82 482.957 137.053C482.401 136.286 482.035 135.398 481.888 134.461C481.741 133.525 481.817 132.568 482.111 131.667C484.071 125.681 485.778 119.767 487.186 114.092C487.569 112.547 488.55 111.218 489.914 110.397C491.277 109.576 492.91 109.33 494.455 109.713C496 110.096 497.329 111.077 498.15 112.441C498.971 113.804 499.217 115.437 498.834 116.982C497.356 122.94 495.566 129.137 493.516 135.401C493.123 136.604 492.359 137.651 491.334 138.394C490.31 139.137 489.077 139.536 487.811 139.536V139.536Z" fill="#444B8C"/>
<path d="M358.871 483.631C356.56 483.63 354.3 484.315 352.378 485.598C350.455 486.881 348.957 488.706 348.072 490.841C347.187 492.976 346.955 495.326 347.405 497.593C347.855 499.86 348.968 501.942 350.602 503.577C352.236 505.212 354.318 506.325 356.585 506.776C358.852 507.227 361.202 506.996 363.337 506.112C365.473 505.227 367.298 503.729 368.582 501.808C369.866 499.886 370.551 497.626 370.551 495.315C370.547 492.218 369.315 489.249 367.126 487.059C364.936 484.869 361.968 483.636 358.871 483.631V483.631Z" fill="#49BDFF"/>
</svg>
