<svg width="512" height="512" viewBox="0 0 512 512" fill="none" xmlns="http://www.w3.org/2000/svg">
<g clip-path="url(#clip0)">
<path d="M255.744 461.338L253.608 455.847L228.66 284.199L152.616 139.403H25.5298L0.529228 166.487L0.61673 166.56H0.0187988C0.18547 169.81 1.40425 172.988 3.5918 175.55L248.587 463.036C250.264 465.016 253.39 466.297 255.744 466.495L256.306 462.599L255.744 461.338Z" fill="#04C8F1"/>
<path d="M512 166.487L490.124 137.32H326.579L254.702 441.494L255.744 466.495C257.629 466.068 261.536 464.641 262.9 463.036L508.083 175.55C510.233 173.031 511.442 169.919 511.641 166.727L512 166.487Z" fill="#B5EEFF"/>
<path d="M141.137 166.56H371.392L255.744 466.495L141.137 166.56Z" fill="#99E6FC"/>
<path d="M510.427 159.779C511.375 161.956 511.781 164.279 511.656 166.56H371.392L455.77 50.6825L459.02 46.6511C460.822 47.6303 462.29 49.2033 463.145 51.1616L510.427 159.779Z" fill="#96E5FD"/>
<path d="M459.02 46.6511L455.769 50.6825L371.392 166.56L290.693 46.5469V45.5052H454.519C456.124 45.5052 457.665 45.9115 459.02 46.6511V46.6511Z" fill="#60DAFF"/>
<path d="M290.692 45.5052V46.5469L371.392 166.56H141.137L221.837 46.5469V45.5052H290.692Z" fill="#C8EFFE"/>
<path d="M221.837 46.5469L141.137 166.56L56.7598 50.6825L53.5618 46.224C54.6764 45.7553 55.8952 45.5052 57.1556 45.5052H221.837V46.5469Z" fill="#99E6FC"/>
<path d="M56.7597 50.6824L141.137 166.56H0.0187458C-0.0958404 164.279 0.300003 161.956 1.24794 159.779L48.5304 51.1616C49.5304 48.8803 51.3533 47.1407 53.5617 46.224L56.7597 50.6824Z" fill="#31AFD0"/>
<path d="M108.036 409.637V453.065C108.036 456.138 105.451 458.581 102.383 458.422C78.8154 457.202 63.7619 447.843 57.2242 430.348C56.2503 427.742 57.4743 424.82 59.9952 423.643L100.413 404.781C103.964 403.124 108.036 405.717 108.036 409.637V409.637Z" fill="#FEDF30"/>
<path d="M82.4853 357.772L41.6562 372.571C38.7676 373.617 35.5904 372.02 34.6935 369.081C27.81 346.508 31.4789 329.167 45.699 317.059C47.8178 315.255 50.9814 315.41 52.9471 317.379L84.452 348.95C87.2209 351.725 86.1708 356.437 82.4853 357.772Z" fill="#FEDF30"/>
<path d="M402.411 409.637V453.065C402.411 456.138 404.995 458.581 408.064 458.422C431.631 457.202 446.685 447.843 453.223 430.348C454.196 427.742 452.972 424.82 450.452 423.643L410.034 404.781C406.483 403.124 402.411 405.717 402.411 409.637Z" fill="#FEDF30"/>
<path d="M427.961 357.772L468.791 372.571C471.679 373.617 474.856 372.02 475.753 369.081C482.637 346.508 478.968 329.167 464.748 317.059C462.629 315.255 459.465 315.41 457.5 317.379L425.995 348.95C423.226 351.725 424.276 356.437 427.961 357.772Z" fill="#FEDF30"/>
</g>
<defs>
<clipPath id="clip0">
<rect width="512" height="512" fill="white"/>
</clipPath>
</defs>
</svg>
